{"title":"The.Great.Escape.1963.1080i.HDTV-TrollHD","uid":6638713,"size":13330070110,"categoryP":"video","categoryS":"hd___movies","magnet":"?xt=urn:btih:f1024e6d05290df34e1642e80a732f90ddd87749&amp;dn=The.Great.Escape.1963.1080i.HDTV-TrollHD&amp;tr=udp%3A%2F%2Ftracker.openbittorrent.com%3A80&amp;tr=udp%3A%2F%2Fopen.demonii.com%3A1337&amp;tr=udp%3A%2F%2Ftracker.coppersurfer.tk%3A6969&amp;tr=udp%3A%2F%2Fexodus.desync.com%3A6969","seeders":0,"leechers":1,"uploader":"insinuendo","files":2,"time":1314663987,"description":"Based on a true story, a group of allied escape artist type prisoners of war are all put in an 'escape proof' camp. Their leader decides to try to take out several hundred all at once. The first half of the film is played for comedy as the prisoners mostly outwit their jailers to dig the escape tunnel. The second half is high adventure as they use boats and trains and planes to get out of occupied Europe.\n\nDirector: John Sturges\nWriters: Paul Brickhill (book), James Clavell (screenplay)\nStars: Steve McQueen, James Garner and Richard Attenborough\n\nIMDb Top 250 | Nominated for Oscar. Another 3 wins &amp; 4 nominations\n &lt;a href=&quot;\nhttp://www.imdb.com/title/tt0057115/&quot; rel=&quot;nofollow&quot; target=&quot;_NEW&quot;&gt;\nhttp://www.imdb.com/title/tt0057115/&lt;/a&gt;\n\n\nGeneral\nID : 1 (0x1)\nComplete name : C:\\Users\\M1k3L\\Desktop\\The Great Escape (1963) 1080i HDTV DD2.0 MPEG2-TrollHD.ts\nFormat : MPEG-TS\nFile size : 12.4 GiB\nDuration : 2h 52mn\nOverall bit rate : 10.3 Mbps\n\nVideo\nID : 546 (0x222)\nMenu ID : 1 (0x1)\nFormat : MPEG Video\nFormat version : Version 2\nFormat profile : Main@High\nFormat settings, BVOP : Yes\nFormat settings, Matrix : Default\nCodec ID : 2\nDuration : 2h 52mn\nBit rate mode : Variable\nBit rate : 9 429 Kbps\nNominal bit rate : 18.0 Mbps\nWidth : 1 920 pixels\nHeight : 1 080 pixels\nDisplay aspect ratio : 16:9\nFrame rate : 29.970 fps\nColor space : YUV\nChroma subsampling : 4:2:0\nBit depth : 8 bits\nCompression mode : Lossy\nBits/(Pixel*Frame) : 0.152\nStream size : 11.3 GiB (91%)\n\nAudio\nID : 544 (0x220)\nMenu ID : 1 (0x1)\nFormat : AC-3\nFormat/Info : Audio Coding 3\nMode extension : CM (complete main)\nCodec ID : 129\nDuration : 2h 52mn\nBit rate mode : Constant\nBit rate : 384 Kbps\nChannel(s) : 2 channels\nChannel positions : Front: L R\nSampling rate : 48.0 KHz\nBit depth : 16 bits\nCompression mode : Lossy\nDelay relative to video : -3ms\nStream size : 473 MiB (4%)\nLanguage : English\n","torrent":{"xt":"urn:btih:f1024e6d05290df34e1642e80a732f90ddd87749","amp;dn":"The.Great.Escape.1963.1080i.HDTV-TrollHD","amp;tr":["udp%3A%2F%2Ftracker.openbittorrent.com%3A80","udp%3A%2F%2Fopen.demonii.com%3A1337","udp%3A%2F%2Ftracker.coppersurfer.tk%3A6969","udp%3A%2F%2Fexodus.desync.com%3A6969"],"infoHash":"f1024e6d05290df34e1642e80a732f90ddd87749","infoHashBuffer":{"type":"Buffer","data":[241,2,78,109,5,41,13,243,78,22,66,232,10,115,47,144,221,216,119,73]},"announce":[],"urlList":[]}}